[img]http://img341.imageshack.us/img341/8326/towerw.jpg[/img]
[code]
Title: Tower Heist 2011 CAM XviD - VISUALiSE
Format: Xvid
Language: English
Subtitles: No
Imdb: http://www.imdb.com/title/tt0471042/

Plot:
When a group of hard working guys find out they've fallen 
victim to a wealthy business man's Ponzi scheme, 
they conspire to rob his high-rise residence. 

Sources:
Video: HP - Many Thanks 
Audio: HP - Many Thanks 

Release Notes:
VISUALiSE Bringing you 
Tower Heist 2011 CAM XviD - VISUALiSE
Thanks to HP for the source    
which was looking nice 
Cropped, Resized, Ran some filters and
a little sharpen then muxed the audio back 
to our encode  

for those who cant be bother'd or CANT 
use the HP files feel free to re encode this
we know you will 

enjoy. 

Info:

Video
ID                               : 0
Format                           : MPEG-4 Visual
Format profile                   : Advanced Simple@L5
Format settings, BVOP            : 2
Format settings, QPel            : No
Format settings, GMC             : No warppoints
Format settings, Matrix          : Default (H.263)
Codec ID                         : XVID
Codec ID/Hint                    : XviD
Duration                         : 1h 33mn
Bit rate                         : 1 498 Kbps
Width                            : 720 pixels
Height                           : 304 pixels
Display aspect ratio             : 2.35:1
Frame rate                       : 29.970 fps
Color space                      : YUV
Chroma subsampling               : 4:2:0
Bit depth                        : 8 bits
Scan type                        : Progressive
Compression mode                 : Lossy
Bits/(Pixel*Frame)               : 0.228
Stream size                      : 1 000 MiB (91%)

Audio
ID                               : 1
Format                           : MPEG Audio
Format version                   : Version 1
Format profile                   : Layer 3
Codec ID                         : 55
Codec ID/Hint                    : MP3
Duration                         : 1h 33mn
Bit rate mode                    : Constant
Bit rate                         : 128 Kbps
Channel(s)                       : 2 channels
Sampling rate                    : 48.0 KHz
Compression mode                 : Lossy
Stream size                      : 85.4 MiB (8%)
Alignment                        : Aligned on interleaves
Interleave, duration             : 33 ms (1.00 video frame)

[/code]
Screens:
[img]http://img526.imageshack.us/img526/6167/56151187.png[/img]
[img]http://img822.imageshack.us/img822/8507/71358592.png[/img]
[img]http://img545.imageshack.us/img545/4772/27868770.png[/img]
[img]http://img641.imageshack.us/img641/5186/28053927.png[/img]
